<svg xmlns="http://www.w3.org/2000/svg" width="69" height="22" fill="none"><path d="M57.647 20.724c5.232 0 9.474-4.242 9.474-9.474s-4.241-9.474-9.474-9.474H39.66L25.375 20.724h32.272z" fill="white" /><path d="M25.375 20.724h32.272c5.232 0 9.474-4.242 9.474-9.474h0c0-5.232-4.241-9.474-9.474-9.474H39.66M25.375 20.724H10.752c-5.232 0-9.474-4.242-9.474-9.474h0c0-5.232 4.242-9.474 9.474-9.474h8.024m6.6 18.948L39.66 1.777m0 0H28.112m0 0l-7.53 9.581m7.53-9.581h-9.337m0 0l-6.534 8.645" stroke="#FFFFFF" strokeWidth="13" strokeLinecap="round" /></svg>